<svg xmlns="http://www.w3.org/2000/svg" xmlns:xlink="http://www.w3.org/1999/xlink" width="122" height="31.607" viewBox="0 0 122 31.607">
  <defs>
    <clipPath id="clip-path">
      <rect id="Rectangle_1" data-name="Rectangle 1" width="122" height="31.607" fill="#00997c"/>
    </clipPath>
  </defs>
  <g id="Group_1" data-name="Group 1" clip-path="url(#clip-path)">
    <path id="Path_1" data-name="Path 1" d="M23.7,11.522A12.012,12.012,0,0,0,11.6,0H0V7.9H11.852a3.955,3.955,0,0,1,3.932,4.334,4.027,4.027,0,0,1-4.048,3.569H0v15.8H7.9v-7.9h3.952A11.852,11.852,0,0,0,23.7,11.522" transform="translate(0 -0.003)" fill="#00997c"/>
    <path id="Path_2" data-name="Path 2" d="M87.5,23.705a7.9,7.9,0,0,0,7.9,7.9V0H87.5Z" transform="translate(-59.842)" fill="#00997c"/>
    <path id="Path_3" data-name="Path 3" d="M144.313,34.93a5.816,5.816,0,0,1-5.419,5.865,5.713,5.713,0,0,1-5.994-5.7V25H125V35.1a13.609,13.609,0,0,0,27.217,0V25h-7.9Z" transform="translate(-85.489 -17.097)" fill="#00997c"/>
    <path id="Path_4" data-name="Path 4" d="M298.423,25V34.93A5.816,5.816,0,0,1,293,40.8a5.713,5.713,0,0,1-5.994-5.7V25h-7.9V35.1a13.609,13.609,0,1,0,27.217,0V25Z" transform="translate(-190.889 -17.097)" fill="#00997c"/>
    <path id="Path_5" data-name="Path 5" d="M231.51,6.921h-7.9V22.71A13.624,13.624,0,0,0,237.2,36.341v-7.9a5.725,5.725,0,0,1-5.689-5.729V19.287a13.177,13.177,0,0,0,5.689,1.264v-7.9a5.725,5.725,0,0,1-5.689-5.729" transform="translate(-152.931 -4.733)" fill="#00997c"/>
    <path id="Path_6" data-name="Path 6" d="M371.329,6.607a2.285,2.285,0,0,1,.186-.911,1.959,1.959,0,0,1,.494-.726,2.162,2.162,0,0,1,.726-.494,2.286,2.286,0,0,1,.911-.185,2.21,2.21,0,0,1,.9.185,2.315,2.315,0,0,1,1.235,1.22,2.279,2.279,0,0,1,.185.911,2.158,2.158,0,0,1-.185.9,2.487,2.487,0,0,1-.494.741,2.7,2.7,0,0,1-.741.494,2.2,2.2,0,0,1-.9.185,2.286,2.286,0,0,1-.911-.185,2.408,2.408,0,0,1-.726-.494,2.021,2.021,0,0,1-.494-.741,2.158,2.158,0,0,1-.186-.9m4.169,0a1.732,1.732,0,0,0-.155-.741,2,2,0,0,0-.386-.6,1.881,1.881,0,0,0-.587-.4,1.7,1.7,0,0,0-.726-.155,1.654,1.654,0,0,0-.726.155,1.725,1.725,0,0,0-.587.4,1.787,1.787,0,0,0-.4.6,2.037,2.037,0,0,0,0,1.544,1.879,1.879,0,0,0,.4.587,1.773,1.773,0,0,0,.587.417,1.919,1.919,0,0,0,.726.155,1.983,1.983,0,0,0,.726-.155A1.945,1.945,0,0,0,374.958,8a2.146,2.146,0,0,0,.386-.587,1.729,1.729,0,0,0,.155-.8m-.649.432a1.158,1.158,0,0,1-.386.726,1.111,1.111,0,0,1-.741.278,1.39,1.39,0,0,1-.571-.108,1.7,1.7,0,0,1-.432-.309,1.621,1.621,0,0,1-.262-.448,1.714,1.714,0,0,1,0-1.158,1.215,1.215,0,0,1,.278-.448,1.05,1.05,0,0,1,.417-.309,1.539,1.539,0,0,1,.571-.108,1.263,1.263,0,0,1,.756.247,1.08,1.08,0,0,1,.386.726h-.417a.587.587,0,0,0-.247-.386.741.741,0,0,0-.479-.154.725.725,0,0,0-.371.077.756.756,0,0,0-.278.216,1.019,1.019,0,0,0-.247.71,1.129,1.129,0,0,0,.247.711,1.074,1.074,0,0,0,.293.231.738.738,0,0,0,.371.093.757.757,0,0,0,.479-.17.71.71,0,0,0,.232-.417Z" transform="translate(-253.961 -2.935)" fill="#00997c"/>
  </g>
</svg>
